<svg width="169" height="35" viewBox="0 0 169 35" fill="none" xmlns="http://www.w3.org/2000/svg">
<path d="M7.99212 0.735992V27.76H20.9521L20.1361 34H0.120117V0.735992H7.99212Z" fill="#141414"/>
<path d="M34.4067 7.69599C38.3107 7.69599 41.3667 8.89599 43.5747 11.296C45.7827 13.664 46.8867 16.992 46.8867 21.28C46.8867 24 46.3747 26.384 45.3507 28.432C44.3587 30.448 42.9187 32.016 41.0307 33.136C39.1747 34.256 36.9667 34.816 34.4067 34.816C30.5347 34.816 27.4787 33.632 25.2387 31.264C23.0307 28.864 21.9267 25.52 21.9267 21.232C21.9267 18.512 22.4227 16.144 23.4147 14.128C24.4387 12.08 25.8787 10.496 27.7347 9.37599C29.6227 8.25599 31.8467 7.69599 34.4067 7.69599ZM34.4067 13.264C32.8707 13.264 31.7187 13.92 30.9507 15.232C30.1827 16.512 29.7987 18.512 29.7987 21.232C29.7987 24.016 30.1667 26.048 30.9027 27.328C31.6707 28.608 32.8387 29.248 34.4067 29.248C35.9427 29.248 37.0947 28.608 37.8627 27.328C38.6307 26.016 39.0147 24 39.0147 21.28C39.0147 18.496 38.6307 16.464 37.8627 15.184C37.1267 13.904 35.9747 13.264 34.4067 13.264Z" fill="#141414"/>
<path d="M65.222 7.79199C66.15 7.79199 66.998 7.90399 67.766 8.12799L66.566 15.472C65.606 15.248 64.838 15.136 64.262 15.136C62.758 15.136 61.606 15.664 60.806 16.72C60.038 17.744 59.43 19.296 58.982 21.376V34H51.398V8.51199H58.022L58.646 13.456C59.222 11.696 60.086 10.32 61.238 9.32799C62.422 8.30399 63.75 7.79199 65.222 7.79199Z" fill="#141414"/>
<path d="M91.4345 20.752C91.4345 21.808 91.3865 22.72 91.2905 23.488H75.4985C75.7545 25.632 76.3625 27.136 77.3225 28C78.2825 28.864 79.6105 29.296 81.3065 29.296C82.3305 29.296 83.3225 29.12 84.2825 28.768C85.2425 28.384 86.2825 27.808 87.4025 27.04L90.5225 31.264C87.5465 33.632 84.2345 34.816 80.5865 34.816C76.4585 34.816 73.2905 33.6 71.0825 31.168C68.8745 28.736 67.7705 25.472 67.7705 21.376C67.7705 18.784 68.2345 16.464 69.1625 14.416C70.0905 12.336 71.4505 10.704 73.2425 9.51999C75.0345 8.30399 77.1785 7.69599 79.6745 7.69599C83.3545 7.69599 86.2345 8.84799 88.3145 11.152C90.3945 13.456 91.4345 16.656 91.4345 20.752ZM83.9945 18.592C83.9305 14.688 82.5545 12.736 79.8665 12.736C78.5545 12.736 77.5305 13.216 76.7945 14.176C76.0905 15.136 75.6585 16.72 75.4985 18.928H83.9945V18.592Z" fill="#141414"/>
<path d="M110.623 7.69599C112.831 7.69599 114.559 8.36799 115.807 9.71199C117.055 11.056 117.679 12.944 117.679 15.376V34H110.095V16.672C110.095 15.392 109.887 14.512 109.471 14.032C109.087 13.52 108.495 13.264 107.695 13.264C106.159 13.264 104.687 14.368 103.279 16.576V34H95.6949V8.51199H102.319L102.847 11.536C103.935 10.256 105.103 9.29599 106.351 8.65599C107.631 8.01599 109.055 7.69599 110.623 7.69599Z" fill="#141414"/>
<path d="M141.35 8.51199V13.84L129.83 28.24H141.59L140.918 34H121.046V28.624L132.614 14.224H122.054V8.51199H141.35Z" fill="#141414"/>
<path d="M156.047 7.69599C159.951 7.69599 163.007 8.89599 165.215 11.296C167.423 13.664 168.527 16.992 168.527 21.28C168.527 24 168.015 26.384 166.991 28.432C165.999 30.448 164.559 32.016 162.671 33.136C160.815 34.256 158.607 34.816 156.047 34.816C152.175 34.816 149.119 33.632 146.879 31.264C144.671 28.864 143.567 25.52 143.567 21.232C143.567 18.512 144.063 16.144 145.055 14.128C146.079 12.08 147.519 10.496 149.375 9.37599C151.263 8.25599 153.487 7.69599 156.047 7.69599ZM156.047 13.264C154.511 13.264 153.359 13.92 152.591 15.232C151.823 16.512 151.439 18.512 151.439 21.232C151.439 24.016 151.807 26.048 152.543 27.328C153.311 28.608 154.479 29.248 156.047 29.248C157.583 29.248 158.735 28.608 159.503 27.328C160.271 26.016 160.655 24 160.655 21.28C160.655 18.496 160.271 16.464 159.503 15.184C158.767 13.904 157.615 13.264 156.047 13.264Z" fill="#141414"/>
</svg>
